<?xml version="1.0" standalone="no"?>
<!DOCTYPE svg PUBLIC "-//W3C//DTD SVG 20010904//EN"
 "http://www.w3.org/TR/2001/REC-SVG-20010904/DTD/svg10.dtd">
<svg version="1.0" xmlns="http://www.w3.org/2000/svg"
 width="267.000000pt" height="267.000000pt" viewBox="0 0 267.000000 267.000000"
 preserveAspectRatio="xMidYMid meet">

<g transform="translate(0.000000,267.000000) scale(0.100000,-0.100000)"
fill="#2F852D" stroke="none">
<path d="M1190 2451 l-45 -6 -3 -101 -3 -100 -47 -13 c-26 -7 -54 -15 -63 -18
-11 -3 -32 20 -68 76 -49 73 -55 79 -77 71 -38 -15 -104 -50 -104 -56 0 -3 14
-45 31 -95 18 -49 30 -91 28 -93 -2 -1 -26 -19 -53 -39 l-49 -37 -51 37 c-117
85 -103 79 -126 58 -11 -10 -17 -22 -13 -28 3 -5 2 -7 -4 -4 -5 4 -22 -7 -38
-23 l-27 -29 61 -74 c33 -40 61 -77 61 -81 0 -6 -43 -73 -66 -104 -1 -2 -41 8
-90 22 -48 14 -91 26 -95 26 -7 0 -59 -112 -59 -128 0 -5 7 -13 16 -16 8 -3
46 -24 83 -46 l68 -39 -15 -65 -15 -64 -97 -7 -97 -6 -6 -67 c-4 -36 -3 -70 1
-74 5 -5 49 -15 98 -24 49 -9 89 -16 90 -17 1 -1 5 -31 8 -67 l7 -66 -36 -12
c-21 -8 -33 -18 -29 -24 4 -6 2 -8 -3 -5 -11 7 -78 -17 -100 -35 -8 -7 -6 -25
9 -71 12 -34 22 -63 23 -65 2 -2 44 4 94 12 50 9 93 16 96 16 3 0 18 -27 35
-59 l29 -59 -62 -59 c-35 -32 -66 -64 -70 -70 -5 -7 11 -36 35 -67 l43 -55 35
21 c19 11 58 33 86 49 l50 29 47 -48 46 -47 -39 -82 c-22 -45 -40 -86 -40 -90
0 -4 26 -25 58 -45 l57 -37 35 42 c19 23 49 57 65 75 l30 33 59 -26 58 -26 -7
-87 c-4 -48 -8 -91 -8 -96 -3 -13 132 -46 139 -34 6 9 53 521 54 579 0 21 -47
68 -264 265 -146 131 -263 240 -261 242 4 5 130 -63 354 -190 95 -55 177 -96
181 -91 4 4 22 163 39 353 18 190 35 368 38 395 l7 50 7 -40 c3 -22 12 -127
19 -233 8 -106 17 -195 22 -198 4 -3 79 44 165 104 87 60 160 107 163 105 2
-2 -68 -77 -157 -166 l-161 -162 21 -512 c12 -281 25 -514 28 -518 4 -3 35 -2
70 2 l64 8 3 101 3 100 47 13 c26 7 54 15 63 18 11 3 32 -20 69 -76 29 -45 54
-81 57 -81 11 0 123 61 123 68 0 4 -14 43 -30 87 -16 44 -30 83 -30 87 0 3 23
25 51 47 l51 40 74 -54 c41 -30 77 -55 82 -55 4 0 30 22 57 50 l49 50 -30 32
c-39 42 -94 114 -94 123 0 4 15 28 32 53 18 26 34 49 35 50 1 2 40 -8 86 -22
47 -14 89 -26 95 -26 12 0 65 117 58 128 -3 5 -40 29 -84 55 l-78 46 15 65 14
64 99 7 c92 6 98 8 98 28 0 12 3 45 6 73 l6 50 -101 18 -101 18 0 31 c0 18 -3
48 -6 67 l-5 35 81 34 c45 19 84 41 87 48 5 13 -20 120 -30 130 -3 2 -45 -3
-93 -11 -49 -9 -92 -16 -96 -16 -10 0 -58 95 -58 114 0 7 26 38 58 67 32 30
61 59 65 66 5 7 -10 34 -35 67 l-43 55 -35 -21 c-19 -11 -57 -33 -85 -48 l-50
-29 -49 45 -48 44 41 81 c22 45 41 85 41 90 0 4 -27 26 -59 48 l-59 40 -25
-32 c-14 -18 -35 -43 -47 -57 -12 -14 -28 -33 -35 -44 -13 -18 -15 -17 -75 5
l-62 24 7 90 c4 50 8 94 9 99 2 15 -132 46 -142 32 -5 -6 -22 -49 -37 -94 -29
-83 -29 -84 -58 -78 -16 3 -46 6 -66 6 l-37 0 -23 95 c-26 106 -17 100 -121
86z"/>
</g>
</svg>
